<svg width="67" height="66" viewBox="0 0 67 66" fill="none" xmlns="http://www.w3.org/2000/svg">
<path d="M23.6146 23.1961C22.2604 22.2211 21.2719 21.5034 20.2833 20.7992C16.3021 17.9419 12.2938 15.0982 8.33959 12.2003C7.39168 11.5096 6.49793 10.6565 5.83438 9.70859C5.45522 9.13984 5.33334 8.12421 5.59063 7.52838C5.73959 7.1763 6.95834 6.98671 7.54064 7.18984C8.96251 7.6638 10.3438 8.3138 11.6438 9.05859C15.6927 11.4013 19.7011 13.8253 23.8854 16.3169C24.2646 13.8253 24.5896 11.3471 25.05 8.89609C25.4021 7.00026 25.8896 5.10442 26.4177 3.24921C26.7563 2.044 27.474 1.0013 28.9229 1.20442C30.4261 1.40755 30.9136 2.59921 30.8865 3.93984C30.8323 7.93463 30.6969 11.9159 30.6156 15.9107C30.5886 16.8586 30.6156 17.8065 30.6156 18.7544C30.7646 18.8898 32.0375 17.7523 32.6333 17.17C37.725 12.1867 42.8167 7.23046 47.9625 2.3013C48.6802 1.61067 49.5875 1.02838 50.5083 0.649213C50.9958 0.446088 51.9167 0.595047 52.2417 0.94713C52.5667 1.29921 52.6344 2.22005 52.4042 2.69401C51.9708 3.6013 51.3208 4.42734 50.6302 5.17213C46.0938 10.1555 41.5302 15.1117 36.9802 20.0815C36.4792 20.6232 35.9781 21.1919 35.2333 22.018C38.6458 21.7742 41.7198 21.5034 44.7938 21.3409C50.9823 21.0294 57.1844 20.7721 63.3729 20.5013C63.7521 20.4878 64.1583 20.4878 64.4833 20.5555C66.6094 21.0023 66.4198 23.1284 64.8219 23.3992C62.8719 23.7378 60.9083 24.1575 58.9313 24.3607C51.849 25.0648 44.7667 25.6878 37.6844 26.3513C37.5354 26.3648 37.4 26.419 36.9531 26.5409C38.9031 28.0711 40.7042 29.4794 42.5052 30.8742C45.9042 33.5284 49.3438 36.1419 52.6886 38.8503C53.5823 39.5815 54.3677 40.543 54.9365 41.545C55.5458 42.6013 54.9094 43.5086 53.7448 43.2242C52.3229 42.8586 50.8604 42.2763 49.6552 41.4503C43.7781 37.4419 37.9823 33.3117 32.1594 29.2221C31.5094 28.7617 30.8594 28.3013 29.9115 27.6107C29.7083 30.6846 29.5458 33.4471 29.3292 36.2096C28.6792 44.4294 28.0292 52.6492 27.3521 60.869C27.2708 61.7763 27.0948 62.6971 26.824 63.5638C26.4583 64.7555 25.6458 65.5409 24.3323 65.4461C23.1 65.3513 22.3823 64.5253 22.1656 63.3607C21.9625 62.2503 21.8542 61.1128 21.8677 59.9888C21.949 52.6492 22.0708 45.3232 22.1792 37.9836C22.1927 37.4419 22.1792 36.9138 22.1792 35.9794C21.5563 36.5753 21.1229 36.968 20.7031 37.3878C16.0177 42.0732 11.3323 46.7721 6.63334 51.4576C6.10522 51.9857 5.50939 52.5138 4.8323 52.8117C4.37189 53.0148 3.55939 53.0013 3.2073 52.7169C2.85522 52.4326 2.77397 51.6336 2.77397 51.1596C2.78751 49.6701 3.58647 49.0065 4.29064 48.1534C8.43439 43.1294 12.6458 38.1461 16.8844 33.1898C18.4146 31.4023 20.0802 29.7367 22.0438 27.6513C18.374 28.0711 15.1917 28.4773 12.0094 28.7753C8.94897 29.0596 5.88855 29.2357 2.81459 29.4523C2.48959 29.4794 2.15105 29.4253 1.85313 29.3846C0.295843 29.195 1.17605 27.543 1.62293 27.4346C4.69689 26.6763 7.79793 25.945 10.9125 25.3763C14.6094 24.7398 22.775 23.4805 23.6146 23.1961Z" fill="black"/>
</svg>
